<svg width="20" height="20" viewBox="0 0 20 20" fill="none" xmlns="http://www.w3.org/2000/svg">
<path d="M18.3298 6.30963C18.3184 4.51331 17.5175 3.15028 15.9677 2.24295C15.2858 1.8435 14.5322 1.67067 13.7418 1.67027C11.2469 1.66823 8.75191 1.66211 6.25696 1.6719C4.22627 1.67964 2.52981 2.91917 1.88743 4.85489C1.79286 5.14021 1.75822 5.44591 1.69626 5.74224C1.68525 5.79482 1.67629 5.84781 1.6665 5.90039V14.1022C1.71134 14.3517 1.7358 14.6068 1.80387 14.8498C2.32071 16.6946 3.51948 17.8277 5.38835 18.25C5.55587 18.2879 5.72829 18.3059 5.89826 18.3332H14.1017C14.3516 18.2883 14.6068 18.2639 14.8501 18.1958C16.6929 17.6798 17.8293 16.4831 18.245 14.6162C18.3119 14.3174 18.329 14.0028 18.3298 13.6954C18.3363 11.2335 18.3453 8.77157 18.3298 6.30963ZM10.0073 14.5685C7.49811 14.5828 5.43074 12.5187 5.43196 10.0005C5.43318 7.48476 7.46673 5.44836 9.99266 5.43409C12.5019 5.41983 14.5693 7.48353 14.568 10.0017C14.5668 12.5175 12.5333 14.5539 10.0073 14.5685ZM14.8436 6.54645C14.0895 6.544 13.4553 5.90895 13.4557 5.15651C13.4557 4.40163 14.0879 3.77229 14.8456 3.7731C15.6074 3.77351 16.2315 4.39837 16.2294 5.15896C16.2278 5.91711 15.5968 6.54889 14.8436 6.54645Z" fill="#555555"/>
<path d="M1.6665 14.1025C1.71134 14.352 1.7358 14.6072 1.80387 14.8501C2.32071 16.6949 3.51948 17.8281 5.38835 18.2503C5.55587 18.2882 5.72829 18.3062 5.89826 18.3335C4.48754 18.3335 3.07682 18.3335 1.6665 18.3335C1.6665 16.9232 1.6665 15.5129 1.6665 14.1025Z" fill="white"/>
<path d="M13.5839 10.0091C13.5773 11.9909 11.96 13.5973 9.9847 13.5842C8.00618 13.5712 6.41 11.9652 6.41652 9.99365C6.42305 8.01228 8.04083 6.40509 10.0161 6.41854C11.9946 6.43158 13.5904 8.03755 13.5839 10.0091Z" fill="#555555"/>
<path d="M15.2445 5.15518C15.2453 5.37447 15.0599 5.56116 14.843 5.55993C14.6282 5.55871 14.4387 5.3655 14.4419 5.1511C14.4456 4.94037 14.6266 4.76021 14.8385 4.75736C15.0607 4.7545 15.2437 4.93385 15.2445 5.15518Z" fill="#555555"/>
</svg>
