<svg width="20" height="20" viewBox="0 0 20 20" fill="none" xmlns="http://www.w3.org/2000/svg">
<path d="M16.9859 16.9613C15.1304 14.2539 13.2733 11.5473 11.4169 8.84044C11.3927 8.80518 11.3705 8.76847 11.3403 8.72163C11.6654 8.34258 11.9889 7.96515 12.3128 7.58791C13.9961 5.62737 15.6796 3.66665 17.3629 1.70593C17.3734 1.69363 17.3817 1.67971 17.3911 1.6665H15.9616C14.2144 3.70101 12.4671 5.7357 10.6921 7.80257C10.6708 7.76405 10.6556 7.73096 10.6353 7.70148C9.2723 5.71327 7.90891 3.72542 6.54588 1.73721C6.53087 1.71515 6.5202 1.69019 6.50736 1.6665H1.6665C1.70846 1.73522 1.74716 1.80612 1.79255 1.87231C3.83845 4.85661 5.88489 7.84055 7.93133 10.8247C7.95267 10.8558 7.97311 10.8876 8.00295 10.9326C7.83675 11.1276 7.66965 11.3245 7.50128 11.5206C5.5988 13.7361 3.69613 15.9514 1.79382 18.1672C1.74861 18.22 1.70882 18.2777 1.6665 18.3332H3.09608C3.74351 17.5756 4.38967 16.817 5.03836 16.0605C6.19161 14.7156 7.34648 13.3717 8.50063 12.0277C8.54277 11.9785 8.58617 11.9305 8.63645 11.8732C8.669 11.9126 8.69794 11.943 8.72145 11.9772C10.1523 14.0632 11.5828 16.1495 13.0131 18.2361C13.0342 18.267 13.0512 18.3008 13.0702 18.3332H17.9109C17.6027 17.8758 17.2977 17.4163 16.9859 16.9613ZM15.7675 17.2971C15.1505 17.2977 14.5334 17.2944 13.9164 17.3002C13.8016 17.3011 13.7308 17.2684 13.6638 17.1723C10.3496 12.4176 7.03271 7.66441 3.71638 2.91108C3.68582 2.86731 3.65797 2.82156 3.60914 2.74669C4.21443 2.74669 4.78807 2.76948 5.35881 2.73801C5.69645 2.71938 5.88254 2.8382 6.07369 3.11344C9.31208 7.77581 12.5633 12.4293 15.8116 17.0848C15.8538 17.1452 15.8945 17.2065 15.9498 17.2875C15.8704 17.2919 15.8191 17.2969 15.7675 17.2971Z" fill="#555555"/>
</svg>
